<svg width="48" height="45" viewBox="0 0 48 45" fill="none" xmlns="http://www.w3.org/2000/svg">
<path d="M5.01562 42.4525L10.3594 17.1166L3.35156 18.1713L4.96875 10.6713L22.2656 8.28067L15 42.4525H5.01562Z" fill="#FCFCFD"/>
<path d="M37.0352 17.0072C36.6914 16.8041 36.2812 16.6283 35.8047 16.4799C35.3359 16.3315 34.8672 16.2572 34.3984 16.2572C33.7422 16.2572 33.25 16.3979 32.9219 16.6791C32.6016 16.9525 32.4414 17.308 32.4414 17.7455C32.4414 18.1361 32.5742 18.4604 32.8398 18.7182C33.1055 18.976 33.4883 19.2416 33.9883 19.515C35.0039 20.0854 35.6953 20.6283 36.0625 21.144C36.4375 21.6596 36.625 22.265 36.625 22.9604C36.625 23.7182 36.4258 24.3783 36.0273 24.9408C35.6367 25.5033 35.0625 25.9447 34.3047 26.265C33.5469 26.5854 32.6211 26.7455 31.5273 26.7455C30.9336 26.7455 30.3047 26.6791 29.6406 26.5463C28.9766 26.4135 28.4688 26.2533 28.1172 26.0658L28.5859 23.7455C29.0156 24.0033 29.5234 24.2221 30.1094 24.4018C30.7031 24.5815 31.2734 24.6713 31.8203 24.6713C32.5078 24.6713 33.0195 24.5424 33.3555 24.2846C33.6914 24.0268 33.8594 23.6713 33.8594 23.2182C33.8594 22.8666 33.7422 22.5619 33.5078 22.3041C33.2812 22.0463 32.8359 21.7377 32.1719 21.3783C31.2891 20.9018 30.6445 20.3979 30.2383 19.8666C29.8398 19.3354 29.6406 18.7104 29.6406 17.9916C29.6406 17.2572 29.8281 16.601 30.2031 16.0229C30.5859 15.4369 31.1328 14.9799 31.8438 14.6518C32.5625 14.3236 33.4141 14.1596 34.3984 14.1596C34.9844 14.1596 35.5547 14.2143 36.1094 14.3236C36.6719 14.4252 37.1445 14.5541 37.5273 14.7104L37.0352 17.0072ZM46.7177 16.6322H43.7997L42.6512 22.058C42.5106 22.7377 42.4403 23.1947 42.4403 23.4291C42.4403 23.7885 42.5223 24.0502 42.6864 24.2143C42.8505 24.3705 43.12 24.4486 43.495 24.4486C43.8544 24.4486 44.4012 24.308 45.1356 24.0268L44.6669 26.2416C43.8856 26.5463 43.1122 26.6986 42.3466 26.6986C40.495 26.6986 39.5692 25.7963 39.5692 23.9916C39.5692 23.5385 39.6512 22.9447 39.8153 22.2104L40.9872 16.6322H39.0653L39.5809 14.4525H41.4442L42.0653 11.5815L45.0419 10.7963L44.2802 14.4525H47.2216L46.7177 16.6322Z" fill="#FCFCFD"/>
</svg>
