<svg width="53" height="45" viewBox="0 0 53 45" fill="none" xmlns="http://www.w3.org/2000/svg">
<path d="M0.65625 35.4525L1.03125 33.6557C1.29167 32.3953 1.67188 31.2963 2.17188 30.3588C2.68229 29.4213 3.35417 28.5463 4.1875 27.7338C5.02083 26.9213 6.43229 25.8536 8.42188 24.5307C10.0573 23.4265 11.1094 22.6661 11.5781 22.2494C12.0469 21.8328 12.3958 21.4265 12.625 21.0307C12.8542 20.6244 12.9688 20.1817 12.9688 19.7025C12.9688 19.1296 12.7656 18.6765 12.3594 18.3432C11.9635 17.9994 11.4062 17.8275 10.6875 17.8275C8.41667 17.8275 6.46875 18.3848 4.84375 19.4994L6 14.0463C8.02083 13.1296 10.4896 12.6713 13.4062 12.6713C14.7396 12.6713 15.8854 12.9213 16.8438 13.4213C17.8125 13.9213 18.5521 14.614 19.0625 15.4994C19.5729 16.3848 19.8281 17.3953 19.8281 18.5307C19.8281 19.7078 19.6094 20.7546 19.1719 21.6713C18.7448 22.588 18.0885 23.4421 17.2031 24.2338C16.3281 25.015 14.9583 25.9213 13.0938 26.9525C11.4271 27.9005 10.3125 28.5932 9.75 29.0307C9.19792 29.4682 8.88542 29.8275 8.8125 30.1088H17.4062L16.2812 35.4525H0.65625Z" fill="#FCFCFD"/>
<path d="M36.8672 17.3822C36.8672 17.7807 36.7461 18.5541 36.5039 19.7025L35.0742 26.4525H32.2383L33.6914 19.515C33.8477 18.6791 33.9258 18.1674 33.9258 17.9799C33.9258 17.5111 33.8008 17.1322 33.5508 16.8432C33.3086 16.5463 32.9609 16.3979 32.5078 16.3979C32.0078 16.3979 31.4727 16.5971 30.9023 16.9955C30.3398 17.3861 29.8398 17.9135 29.4023 18.5775C28.9648 19.2416 28.6758 19.9018 28.5352 20.558L27.2812 26.4525H24.4219L26.2383 18.0619C26.5195 16.7182 26.7266 15.515 26.8594 14.4525H29.625C29.5625 15.1166 29.4414 15.976 29.2617 17.0307H29.3086C29.9336 16.1166 30.6445 15.4096 31.4414 14.9096C32.2461 14.4096 33.043 14.1596 33.832 14.1596C34.8008 14.1596 35.5469 14.4369 36.0703 14.9916C36.6016 15.5463 36.8672 16.3432 36.8672 17.3822ZM48.9989 26.4525H46.1278C46.1278 26.0854 46.1981 25.3393 46.3387 24.2143H46.2919C45.7216 25.0893 45.1356 25.7299 44.5341 26.1361C43.9403 26.5424 43.2567 26.7455 42.4833 26.7455C41.3348 26.7455 40.4403 26.351 39.7997 25.5619C39.1669 24.765 38.8505 23.6479 38.8505 22.2104C38.8505 20.7494 39.1747 19.3861 39.8231 18.1205C40.4794 16.8471 41.3739 15.8705 42.5067 15.1908C43.6473 14.5033 44.9403 14.1596 46.3856 14.1596C47.0731 14.1596 47.7294 14.2299 48.3544 14.3705L49.5731 8.68692H52.3622L49.4325 22.6322C49.3387 23.0307 49.2411 23.644 49.1395 24.4721C49.0458 25.3002 48.9989 25.9604 48.9989 26.4525ZM47.9208 16.4916C47.3739 16.351 46.8427 16.2807 46.327 16.2807C45.4286 16.2807 44.6395 16.515 43.9598 16.9838C43.2802 17.4525 42.7333 18.1596 42.3192 19.1049C41.9052 20.0424 41.6981 21.019 41.6981 22.0346C41.6981 22.8471 41.8505 23.4643 42.1552 23.8861C42.4677 24.3002 42.9169 24.5072 43.5028 24.5072C44.3231 24.5072 45.0692 24.0658 45.7411 23.183C46.413 22.3002 46.9169 21.101 47.2528 19.5854L47.9208 16.4916Z" fill="#FCFCFD"/>
</svg>
