<svg width="47" height="45" viewBox="0 0 47 45" fill="none" xmlns="http://www.w3.org/2000/svg">
<path d="M18.5469 18.2025C18.5469 19.1192 18.3125 20.0046 17.8438 20.8588C17.3854 21.7025 16.7344 22.4109 15.8906 22.9838C15.0573 23.5463 14.0833 23.9161 12.9688 24.0932V24.1557C15.5521 24.7078 16.8438 26.3171 16.8438 28.9838C16.8438 30.4109 16.4375 31.6505 15.625 32.7025C14.8229 33.7442 13.6823 34.5307 12.2031 35.0619C10.724 35.5828 8.95312 35.8432 6.89062 35.8432C4.58854 35.8432 2.52083 35.4265 0.6875 34.5932L1.76562 29.5619C3.44271 30.4994 5.06771 30.9682 6.64062 30.9682C7.74479 30.9682 8.61979 30.7546 9.26562 30.3275C9.92188 29.89 10.25 29.2963 10.25 28.5463C10.25 27.838 9.98438 27.3171 9.45312 26.9838C8.92188 26.64 8.07812 26.4682 6.92188 26.4682H4.84375L5.875 21.5619H8.48438C9.56771 21.5619 10.4167 21.3692 11.0312 20.9838C11.6458 20.5984 11.9531 20.0359 11.9531 19.2963C11.9531 18.1192 11.0573 17.5307 9.26562 17.5307C7.88021 17.5307 6.42708 17.864 4.90625 18.5307L5.90625 13.5932C7.07292 13.239 8.10938 12.9994 9.01562 12.8744C9.93229 12.739 10.8438 12.6713 11.75 12.6713C13.9479 12.6713 15.6302 13.1505 16.7969 14.1088C17.9635 15.0671 18.5469 16.4317 18.5469 18.2025Z" fill="#FCFCFD"/>
<path d="M32.3516 17.183C31.875 16.933 31.4141 16.808 30.9688 16.808C30.1562 16.808 29.4141 17.2182 28.7422 18.0385C28.0781 18.8588 27.6016 19.9525 27.3125 21.3197L26.2227 26.4525H23.3867L25.0508 18.6479C25.4492 16.7025 25.6836 15.3041 25.7539 14.4525H28.543C28.4648 15.2104 28.3555 16.0541 28.2148 16.9838H28.2617C28.7539 16.0932 29.2695 15.4018 29.8086 14.9096C30.3555 14.4096 30.9922 14.1596 31.7188 14.1596C32.0156 14.1596 32.4102 14.2182 32.9023 14.3354L32.3516 17.183ZM43.1473 26.4525H40.2762C40.2762 26.0854 40.3466 25.3393 40.4872 24.2143H40.4403C39.87 25.0893 39.2841 25.7299 38.6825 26.1361C38.0887 26.5424 37.4052 26.7455 36.6317 26.7455C35.4833 26.7455 34.5887 26.351 33.9481 25.5619C33.3153 24.765 32.9989 23.6479 32.9989 22.2104C32.9989 20.7494 33.3231 19.3861 33.9716 18.1205C34.6278 16.8471 35.5223 15.8705 36.6552 15.1908C37.7958 14.5033 39.0887 14.1596 40.5341 14.1596C41.2216 14.1596 41.8778 14.2299 42.5028 14.3705L43.7216 8.68692H46.5106L43.5809 22.6322C43.4872 23.0307 43.3895 23.644 43.288 24.4721C43.1942 25.3002 43.1473 25.9604 43.1473 26.4525ZM42.0692 16.4916C41.5223 16.351 40.9911 16.2807 40.4755 16.2807C39.577 16.2807 38.788 16.515 38.1083 16.9838C37.4286 17.4525 36.8817 18.1596 36.4677 19.1049C36.0536 20.0424 35.8466 21.019 35.8466 22.0346C35.8466 22.8471 35.9989 23.4643 36.3036 23.8861C36.6161 24.3002 37.0653 24.5072 37.6512 24.5072C38.4716 24.5072 39.2177 24.0658 39.8895 23.183C40.5614 22.3002 41.0653 21.101 41.4012 19.5854L42.0692 16.4916Z" fill="#FCFCFD"/>
</svg>
