<svg width="47" height="45" viewBox="0 0 47 45" fill="none" xmlns="http://www.w3.org/2000/svg">
<path d="M19.3125 13.0463L16.3281 27.0619H18.875L17.9219 31.6088H15.3594L14.5469 35.4525H8.6875L9.5 31.6088H0.453125L1.42188 26.9994C3.28646 25.2807 5.25 23.1713 7.3125 20.6713C9.375 18.1609 11.2552 15.6192 12.9531 13.0463H19.3125ZM10.4375 27.0619L11.8125 20.6088C11.1979 21.5671 10.3698 22.6869 9.32812 23.9682C8.29688 25.2494 7.34896 26.2807 6.48438 27.0619H10.4375Z" fill="#FCFCFD"/>
<path d="M32.5898 16.6322H29.6719L28.5234 22.058C28.3828 22.7377 28.3125 23.1947 28.3125 23.4291C28.3125 23.7885 28.3945 24.0502 28.5586 24.2143C28.7227 24.3705 28.9922 24.4486 29.3672 24.4486C29.7266 24.4486 30.2734 24.308 31.0078 24.0268L30.5391 26.2416C29.7578 26.5463 28.9844 26.6986 28.2188 26.6986C26.3672 26.6986 25.4414 25.7963 25.4414 23.9916C25.4414 23.5385 25.5234 22.9447 25.6875 22.2104L26.8594 16.6322H24.9375L25.4531 14.4525H27.3164L27.9375 11.5815L30.9141 10.7963L30.1523 14.4525H33.0938L32.5898 16.6322ZM45.3192 17.394C45.3192 17.8158 45.202 18.5854 44.9677 19.7025L43.538 26.4525H40.702L42.1552 19.515C42.3114 18.6791 42.3895 18.1674 42.3895 17.9799C42.3895 16.9252 41.913 16.3979 40.9598 16.3979C40.452 16.3979 39.913 16.601 39.3427 17.0072C38.7802 17.4057 38.2802 17.933 37.8427 18.5893C37.413 19.2455 37.1278 19.9135 36.9872 20.5932L35.7333 26.4525H32.8856L36.6708 8.68692H39.5067L37.7255 17.019H37.7723C38.4208 16.1127 39.1395 15.4096 39.9286 14.9096C40.7177 14.4096 41.5067 14.1596 42.2958 14.1596C43.2958 14.1596 44.0497 14.4447 44.5575 15.015C45.0653 15.5775 45.3192 16.3705 45.3192 17.394Z" fill="#FCFCFD"/>
</svg>
