<svg width="46" height="45" viewBox="0 0 46 45" fill="none" xmlns="http://www.w3.org/2000/svg">
<path d="M18.1406 18.2338H10.0781L9.375 21.3744L10.0469 21.3432C12.224 21.3432 13.9167 21.9109 15.125 23.0463C16.3438 24.1817 16.9531 25.7338 16.9531 27.7025C16.9531 29.2234 16.5156 30.6296 15.6406 31.9213C14.7656 33.2025 13.5729 34.1765 12.0625 34.8432C10.5625 35.5098 8.83333 35.8432 6.875 35.8432C5.64583 35.8432 4.45833 35.7182 3.3125 35.4682C2.17708 35.2182 1.28646 34.9057 0.640625 34.5307L1.6875 29.5932C2.3125 29.9682 3.11458 30.2911 4.09375 30.5619C5.07292 30.8328 5.89583 30.9682 6.5625 30.9682C7.73958 30.9682 8.67188 30.7286 9.35938 30.2494C10.0573 29.7598 10.4062 29.1244 10.4062 28.3432C10.4062 26.8536 9.13542 26.1088 6.59375 26.1088C6.08333 26.1088 5.44271 26.1453 4.67188 26.2182C3.90104 26.2807 3.30208 26.364 2.875 26.4682L5.76562 13.0463H19.2656L18.1406 18.2338Z" fill="#FCFCFD"/>
<path d="M31.5898 16.6322H28.6719L27.5234 22.058C27.3828 22.7377 27.3125 23.1947 27.3125 23.4291C27.3125 23.7885 27.3945 24.0502 27.5586 24.2143C27.7227 24.3705 27.9922 24.4486 28.3672 24.4486C28.7266 24.4486 29.2734 24.308 30.0078 24.0268L29.5391 26.2416C28.7578 26.5463 27.9844 26.6986 27.2188 26.6986C25.3672 26.6986 24.4414 25.7963 24.4414 23.9916C24.4414 23.5385 24.5234 22.9447 24.6875 22.2104L25.8594 16.6322H23.9375L24.4531 14.4525H26.3164L26.9375 11.5815L29.9141 10.7963L29.1523 14.4525H32.0938L31.5898 16.6322ZM44.3192 17.394C44.3192 17.8158 44.202 18.5854 43.9677 19.7025L42.538 26.4525H39.702L41.1552 19.515C41.3114 18.6791 41.3895 18.1674 41.3895 17.9799C41.3895 16.9252 40.913 16.3979 39.9598 16.3979C39.452 16.3979 38.913 16.601 38.3427 17.0072C37.7802 17.4057 37.2802 17.933 36.8427 18.5893C36.413 19.2455 36.1278 19.9135 35.9872 20.5932L34.7333 26.4525H31.8856L35.6708 8.68692H38.5067L36.7255 17.019H36.7723C37.4208 16.1127 38.1395 15.4096 38.9286 14.9096C39.7177 14.4096 40.5067 14.1596 41.2958 14.1596C42.2958 14.1596 43.0497 14.4447 43.5575 15.015C44.0653 15.5775 44.3192 16.3705 44.3192 17.394Z" fill="#FCFCFD"/>
</svg>
